<svg id="visual" viewBox="0 0 340 450" width="340" height="450" xmlns="http://www.w3.org/2000/svg" xmlns:xlink="http://www.w3.org/1999/xlink" version="1.1"><rect x="0" y="0" width="340" height="450" fill="#FFFFFF"></rect><path d="M0 102L9.5 101.2C19 100.3 38 98.7 56.8 109.8C75.7 121 94.3 145 113.2 143.5C132 142 151 115 170 115C189 115 208 142 226.8 138.7C245.7 135.3 264.3 101.7 283.2 99.7C302 97.7 321 127.3 330.5 142.2L340 157L340 0L330.5 0C321 0 302 0 283.2 0C264.3 0 245.7 0 226.8 0C208 0 189 0 170 0C151 0 132 0 113.2 0C94.3 0 75.7 0 56.8 0C38 0 19 0 9.5 0L0 0Z" fill="#557aff" stroke-linecap="round" stroke-linejoin="miter"></path></svg>